<?xml version="1.0" encoding="utf-8"?>
<!-- Generator: Adobe Illustrator 24.1.0, SVG Export Plug-In . SVG Version: 6.00 Build 0)  -->
<svg version="1.1" id="Ebene_1" xmlns="http://www.w3.org/2000/svg" xmlns:xlink="http://www.w3.org/1999/xlink" x="0px" y="0px"
	 viewBox="0 0 36.1 28.3" style="enable-background:new 0 0 36.1 28.3;" xml:space="preserve">
<style type="text/css">
	.st0{fill:#284D73;}
	.st1{fill:#3C3C3B;}
	.st2{fill:#FFFFFF;}
	.st3{fill:#878787;}
</style>
<path class="st2" d="M33.5,25.1V9.7c-0.4,0.5-0.9,0.9-1.4,1.3c-3.6,2.8-6.5,5-8.6,6.8c-0.7,0.6-1.2,1-1.7,1.3s-1,0.6-1.7,1
	c-0.7,0.3-1.4,0.5-2.1,0.5h0c-0.6,0-1.3-0.2-2.1-0.5s-1.3-0.7-1.7-1s-1-0.8-1.7-1.3c-2.1-1.8-5-4-8.6-6.8c-0.5-0.4-1-0.8-1.4-1.3
	v15.5c0,0.2,0.1,0.3,0.2,0.5c0.1,0.1,0.3,0.2,0.5,0.2h29.6c0.2,0,0.3-0.1,0.5-0.2C33.4,25.5,33.5,25.3,33.5,25.1z M33.5,4V3.5l0-0.3
	L33.4,3l-0.1-0.2l-0.2-0.2l-0.3-0.1H3.2C3,2.6,2.9,2.6,2.8,2.8S2.6,3,2.6,3.2c0,2.3,1,4.2,3,5.7c2.6,2,5.3,4.2,8.1,6.4
	c0.1,0.1,0.3,0.3,0.7,0.6c0.4,0.3,0.7,0.6,0.9,0.8c0.2,0.2,0.5,0.4,0.9,0.6c0.4,0.2,0.7,0.4,1,0.6S17.8,18,18,18h0
	c0.3,0,0.6-0.1,0.9-0.2s0.6-0.3,1-0.6c0.4-0.2,0.7-0.5,0.9-0.6c0.2-0.2,0.5-0.4,0.9-0.8s0.6-0.5,0.7-0.6c2.8-2.2,5.5-4.3,8.1-6.4
	c0.7-0.6,1.4-1.4,2-2.3C33.2,5.6,33.5,4.8,33.5,4z M36.1,3.2v21.9c0,0.9-0.3,1.6-0.9,2.3s-1.4,0.9-2.3,0.9H3.2
	c-0.9,0-1.6-0.3-2.3-0.9S0,26,0,25.1V3.2c0-0.9,0.3-1.6,0.9-2.3S2.3,0,3.2,0h29.6c0.9,0,1.6,0.3,2.3,0.9S36.1,2.3,36.1,3.2z"/>
</svg>
