<?xml version="1.0" encoding="UTF-8" standalone="no"?>
<svg
   xmlns:dc="http://purl.org/dc/elements/1.1/"
   xmlns:cc="http://creativecommons.org/ns#"
   xmlns:rdf="http://www.w3.org/1999/02/22-rdf-syntax-ns#"
   xmlns:svg="http://www.w3.org/2000/svg"
   xmlns="http://www.w3.org/2000/svg"
   version="1.1"
   id="svg2"
   xml:space="preserve"
   width="486.71997"
   height="340.16"
   viewBox="0 0 486.71997 340.16"><metadata
     id="metadata8"><rdf:RDF><cc:Work
         rdf:about=""><dc:format>image/svg+xml</dc:format><dc:type
           rdf:resource="http://purl.org/dc/dcmitype/StillImage" /></cc:Work></rdf:RDF></metadata><defs
     id="defs6"><clipPath
       clipPathUnits="userSpaceOnUse"
       id="clipPath18"><path
         d="M 0,0 H 1520.8333 V 1059.7932 H 0 Z"
         clip-rule="evenodd"
         id="path16" /></clipPath><clipPath
       clipPathUnits="userSpaceOnUse"
       id="clipPath30"><path
         d="M 0,0 H 1520.8333 V 1056.7996 H 0 Z"
         clip-rule="evenodd"
         id="path28" /></clipPath></defs><g
     id="g10"
     transform="matrix(0.31999998,0,0,0.31999998,0,8.504e-6)"><g
       id="g12"><g
         id="g14"
         clip-path="url(#clipPath18)"><g
           id="g20"
           transform="scale(2.9937663)"><path
             d="M 0,0 H 508 V 354 H 0 Z"
             style="fill:#ffffff;fill-opacity:1;fill-rule:nonzero;stroke:none"
             id="path22" /></g></g></g><g
       id="g24"><g
         id="g26"
         clip-path="url(#clipPath30)"><g
           id="g32"
           transform="matrix(2.9937663,0,0,2.9937663,1.4968831,1.4968831)"><path
             d="m 19,1 h 134 c 1.1819,0 2.35243,0.1152883 3.51161,0.3458649 1.15918,0.2305766 2.28473,0.572011 3.37667,1.0243033 1.09193,0.4522922 2.12924,1.0067515 3.11195,1.6633782 0.98271,0.6566267 1.89194,1.4028039 2.72767,2.2385312 0.83573,0.8357272 1.5819,1.7449464 2.23853,2.7276582 0.65662,0.9827109 1.21108,2.0200312 1.66338,3.1119612 0.4523,1.09193 0.79373,2.217489 1.0243,3.376676 C 170.8847,16.647558 171,17.818102 171,19 v 84 c 0,1.18189 -0.1153,2.35243 -0.34589,3.51162 -0.23057,1.15919 -0.572,2.28474 -1.0243,3.37667 -0.4523,1.09194 -1.00676,2.12926 -1.66338,3.11197 -0.65663,0.9827 -1.4028,1.89192 -2.23853,2.72765 -0.83573,0.83573 -1.74496,1.5819 -2.72767,2.23853 -0.98271,0.65662 -2.02002,1.21109 -3.11195,1.66338 -1.09194,0.4523 -2.21749,0.79373 -3.37667,1.02431 C 155.35243,120.88471 154.1819,121 153,121 H 19 c -1.181898,0 -2.352442,-0.11529 -3.511627,-0.34587 -1.159187,-0.23058 -2.284746,-0.57201 -3.376676,-1.02431 -1.09193,-0.45229 -2.1292513,-1.00676 -3.1119621,-1.66338 -0.9827109,-0.65663 -1.8919301,-1.4028 -2.7276573,-2.23853 -0.8357273,-0.83573 -1.5819045,-1.74495 -2.2385312,-2.72765 -0.6566267,-0.98271 -1.211086,-2.02003 -1.6633782,-3.11197 C 1.9178758,108.79636 1.5764414,107.67081 1.3458648,106.51162 1.1152881,105.35243 0.99999994,104.18189 1,103 V 19 c -6e-8,-1.181898 0.1152881,-2.352442 0.3458648,-3.511627 0.2305766,-1.159187 0.572011,-2.284746 1.0243034,-3.376676 C 2.8224604,11.019767 3.3769197,9.9824457 4.0335464,8.9997349 4.6901731,8.017024 5.4363503,7.1078048 6.2720776,6.2720776 7.1078048,5.4363503 8.017024,4.6901731 8.9997358,4.0335464 9.9824467,3.3769197 11.019767,2.8224604 12.111697,2.3701682 13.203627,1.9178759 14.329186,1.5764415 15.488373,1.3458649 16.647558,1.1152883 17.818102,1 19,1 Z"
             style="fill:#d8d8d6;fill-opacity:1;fill-rule:nonzero;stroke:none"
             id="path34" /><path
             d="m 19,1 h 134 c 1.1819,0 2.35243,0.1152883 3.51161,0.3458649 1.15918,0.2305766 2.28473,0.572011 3.37667,1.0243033 1.09193,0.4522922 2.12924,1.0067515 3.11195,1.6633782 0.98271,0.6566267 1.89194,1.4028039 2.72767,2.2385312 0.83573,0.8357272 1.5819,1.7449464 2.23853,2.7276582 0.65662,0.9827109 1.21108,2.0200312 1.66338,3.1119612 0.4523,1.09193 0.79373,2.217489 1.0243,3.376676 C 170.8847,16.647558 171,17.818102 171,19 v 84 c 0,1.18189 -0.1153,2.35243 -0.34589,3.51162 -0.23057,1.15919 -0.572,2.28474 -1.0243,3.37667 -0.4523,1.09194 -1.00676,2.12926 -1.66338,3.11197 -0.65663,0.9827 -1.4028,1.89192 -2.23853,2.72765 -0.83573,0.83573 -1.74496,1.5819 -2.72767,2.23853 -0.98271,0.65662 -2.02002,1.21109 -3.11195,1.66338 -1.09194,0.4523 -2.21749,0.79373 -3.37667,1.02431 C 155.35243,120.88471 154.1819,121 153,121 H 19 c -1.181898,0 -2.352442,-0.11529 -3.511627,-0.34587 -1.159187,-0.23058 -2.284746,-0.57201 -3.376676,-1.02431 -1.09193,-0.45229 -2.1292513,-1.00676 -3.1119621,-1.66338 -0.9827109,-0.65663 -1.8919301,-1.4028 -2.7276573,-2.23853 -0.8357273,-0.83573 -1.5819045,-1.74495 -2.2385312,-2.72765 -0.6566267,-0.98271 -1.211086,-2.02003 -1.6633782,-3.11197 C 1.9178758,108.79636 1.5764414,107.67081 1.3458648,106.51162 1.1152881,105.35243 0.99999994,104.18189 1,103 V 19 c -6e-8,-1.181898 0.1152881,-2.352442 0.3458648,-3.511627 0.2305766,-1.159187 0.572011,-2.284746 1.0243034,-3.376676 C 2.8224604,11.019767 3.3769197,9.9824457 4.0335464,8.9997349 4.6901731,8.017024 5.4363503,7.1078048 6.2720776,6.2720776 7.1078048,5.4363503 8.017024,4.6901731 8.9997358,4.0335464 9.9824467,3.3769197 11.019767,2.8224604 12.111697,2.3701682 13.203627,1.9178759 14.329186,1.5764415 15.488373,1.3458649 16.647558,1.1152883 17.818102,1 19,1 Z"
             style="fill:none;stroke:#000000;stroke-width:1;stroke-linecap:butt;stroke-linejoin:miter;stroke-miterlimit:10;stroke-dasharray:none;stroke-opacity:1"
             id="path36" /></g><g
           id="g38"
           transform="scale(2.9937663)"><text
             transform="translate(34.3125,67)"
             style="font-variant:normal;font-weight:normal;font-size:16px;font-family:'Open Sans';-inkscape-font-specification:OpenSans;writing-mode:lr-tb;fill:#000000;fill-opacity:1;fill-rule:nonzero;stroke:none"
             id="text42"><tspan
               x="0 12.140625 21.375 25.53125 35.625 45.289062 55.109375 64.929688 73.90625 81.523438 87.171875 96.835938"
               y="0"
               id="tspan40">OX Connector</tspan></text></g><g
           id="g44"
           transform="matrix(2.9937663,0,0,2.9937663,1.4968831,1.4968831)"><path
             d="M 311,1 H 506 V 121 H 311 Z"
             style="fill:#052d4b;fill-opacity:1;fill-rule:nonzero;stroke:none"
             id="path46" /><path
             d="M 311,1 H 506 V 121 H 311 Z"
             style="fill:none;stroke:#000000;stroke-width:1;stroke-linecap:butt;stroke-linejoin:miter;stroke-miterlimit:10;stroke-dasharray:none;stroke-opacity:1"
             id="path48" /></g><g
           id="g50"
           transform="scale(2.9937663)"><text
             transform="translate(357.375,67)"
             style="font-variant:normal;font-weight:bold;font-size:16px;font-family:Arimo;-inkscape-font-specification:Arimo-Bold;writing-mode:lr-tb;fill:#ffffff;fill-opacity:1;fill-rule:nonzero;stroke:none"
             id="text54"><tspan
               x="0 12.445312 23.117188 27.5625 39.117188 48.890625 58.664062 63.109375 73.78125 83.554688 88 93.328125"
               y="0"
               id="tspan52">OX App Suite</tspan></text></g><g
           id="g56"
           transform="matrix(2.9937663,0,0,2.9937663,1.4968831,1.4968831)"><path
             d="m 161,96 h 93.63"
             style="fill:none;stroke:#000000;stroke-width:1;stroke-linecap:butt;stroke-linejoin:miter;stroke-miterlimit:10;stroke-dasharray:none;stroke-opacity:1"
             id="path58" /><path
             d="m 259.88,96 -7,3.5 1.75,-3.5 -1.75,-3.5 z"
             style="fill:#000000;fill-opacity:1;fill-rule:nonzero;stroke:none"
             id="path60" /><path
             d="m 259.88,96 -7,3.5 1.75,-3.5 -1.75,-3.5 z"
             style="fill:none;stroke:#000000;stroke-width:1;stroke-linecap:butt;stroke-linejoin:miter;stroke-miterlimit:10;stroke-dasharray:none;stroke-opacity:1"
             id="path62" /><path
             d="m 86,301 v -20 3.5 -13.63"
             style="fill:none;stroke:#000000;stroke-width:1;stroke-linecap:butt;stroke-linejoin:miter;stroke-miterlimit:10;stroke-dasharray:none;stroke-opacity:1"
             id="path64" /><path
             d="m 86,265.62 3.5,7 -3.5,-1.75 -3.5,1.75 z"
             style="fill:#000000;fill-opacity:1;fill-rule:nonzero;stroke:none"
             id="path66" /><path
             d="m 86,265.62 3.5,7 -3.5,-1.75 -3.5,1.75 z"
             style="fill:none;stroke:#000000;stroke-width:1;stroke-linecap:butt;stroke-linejoin:miter;stroke-miterlimit:10;stroke-dasharray:none;stroke-opacity:1"
             id="path68" /><path
             d="m 56,308 c 0,-3.87 13.43,-7 30,-7 7.959999,0 15.59,0.73999 21.21,2.04999 5.63,1.31 8.79,3.09002 8.79,4.95001 v 36 c 0,3.87 -13.43,7 -30,7 -16.57,0 -30,-3.13 -30,-7 z"
             style="fill:#dd042d;fill-opacity:1;fill-rule:nonzero;stroke:none"
             id="path70" /><path
             d="m 56,308 c 0,-3.87 13.43,-7 30,-7 7.959999,0 15.59,0.73999 21.21,2.04999 5.63,1.31 8.79,3.09002 8.79,4.95001 v 36 c 0,3.87 -13.43,7 -30,7 -16.57,0 -30,-3.13 -30,-7 z"
             style="fill:none;stroke:#000000;stroke-width:1;stroke-linecap:butt;stroke-linejoin:miter;stroke-miterlimit:10;stroke-dasharray:none;stroke-opacity:1"
             id="path72" /><path
             d="m 116,308 c 0,3.87 -13.43,7 -30,7 -16.57,0 -30,-3.13 -30,-7"
             style="fill:none;stroke:#000000;stroke-width:1;stroke-linecap:butt;stroke-linejoin:miter;stroke-miterlimit:10;stroke-dasharray:none;stroke-opacity:1"
             id="path74" /></g><g
           id="g76"
           transform="scale(2.9937663)"><text
             transform="translate(66.296875,338)"
             style="font-variant:normal;font-weight:normal;font-size:16px;font-family:'Open Sans';-inkscape-font-specification:OpenSans;writing-mode:lr-tb;fill:#ffffff;fill-opacity:1;fill-rule:nonzero;stroke:none"
             id="text80"><tspan
               x="0 8.3046875 19.648438 29.773438"
               y="0"
               id="tspan78">LDAP</tspan></text></g><g
           id="g82"
           transform="matrix(2.9937663,0,0,2.9937663,1.4968831,1.4968831)"><path
             d="m 261,81 h 90 v 30 h -90 z"
             style="fill:#ffffff;fill-opacity:1;fill-rule:nonzero;stroke:none"
             id="path84" /><path
             d="m 261,81 h 90 v 30 h -90 z"
             style="fill:none;stroke:#000000;stroke-width:1;stroke-linecap:butt;stroke-linejoin:miter;stroke-miterlimit:10;stroke-dasharray:none;stroke-opacity:1"
             id="path86" /></g><g
           id="g88"
           transform="scale(2.9937663)"><text
             transform="translate(268.64063,102)"
             style="font-variant:normal;font-weight:normal;font-size:16px;font-family:Arimo;-inkscape-font-specification:Arimo;writing-mode:lr-tb;fill:#000000;fill-opacity:1;fill-rule:nonzero;stroke:none"
             id="text92"><tspan
               x="0 10.671875 23.117188 33.789062 44.460938 48.90625 59.578125 70.25"
               y="0"
               id="tspan90">SOAP API</tspan></text></g><g
           id="g94"
           transform="matrix(2.9937663,0,0,2.9937663,1.4968831,1.4968831)"><path
             d="M 86,241 V 207.37"
             style="fill:none;stroke:#000000;stroke-width:1;stroke-linecap:butt;stroke-linejoin:miter;stroke-miterlimit:10;stroke-dasharray:none;stroke-opacity:1"
             id="path96" /><path
             d="m 86,202.12 3.5,7 -3.5,-1.75 -3.5,1.75 z"
             style="fill:#000000;fill-opacity:1;fill-rule:nonzero;stroke:none"
             id="path98" /><path
             d="m 86,202.12 3.5,7 -3.5,-1.75 -3.5,1.75 z"
             style="fill:none;stroke:#000000;stroke-width:1;stroke-linecap:butt;stroke-linejoin:miter;stroke-miterlimit:10;stroke-dasharray:none;stroke-opacity:1"
             id="path100" /><path
             d="m 26,241 h 120 v 23.5 H 26 Z"
             style="fill:#7ab51d;fill-opacity:1;fill-rule:nonzero;stroke:none"
             id="path102" /><path
             d="m 26,241 h 120 v 23.5 H 26 Z"
             style="fill:none;stroke:#000000;stroke-width:1;stroke-linecap:butt;stroke-linejoin:miter;stroke-miterlimit:10;stroke-dasharray:none;stroke-opacity:1"
             id="path104" /></g><g
           id="g106"
           transform="scale(2.9937663)"><text
             transform="translate(56.03125,259)"
             style="font-variant:normal;font-weight:normal;font-size:16px;font-family:'Open Sans';-inkscape-font-specification:OpenSans;writing-mode:lr-tb;fill:#000000;fill-opacity:1;fill-rule:nonzero;stroke:none"
             id="text110"><tspan
               x="0 8.3046875 12.351562 19.984375 25.632812 34.609375 44.429688 53.40625"
               y="0"
               id="tspan108">Listener</tspan></text></g><g
           id="g112"
           transform="matrix(2.9937663,0,0,2.9937663,1.4968831,1.4968831)"><path
             d="m 11,81 h 150 v 30 H 11 Z"
             style="fill:#ffffff;fill-opacity:1;fill-rule:nonzero;stroke:none"
             id="path114" /><path
             d="m 11,81 h 150 v 30 H 11 Z"
             style="fill:none;stroke:#000000;stroke-width:1;stroke-linecap:butt;stroke-linejoin:miter;stroke-miterlimit:10;stroke-dasharray:none;stroke-opacity:1"
             id="path116" /></g><g
           id="g118"
           transform="scale(2.9937663)"><text
             transform="translate(64.78125,102)"
             style="font-variant:normal;font-weight:normal;font-size:16px;font-family:'Open Sans';-inkscape-font-specification:OpenSans;writing-mode:lr-tb;fill:#000000;fill-opacity:1;fill-rule:nonzero;stroke:none"
             id="text122"><tspan
               x="0 8.78125 16.398438 22.929688 26.976562 36.78125"
               y="0"
               id="tspan120">Script</tspan></text></g><g
           id="g124"
           transform="matrix(2.9937663,0,0,2.9937663,1.4968831,1.4968831)"><path
             d="M 86,161 V 117.37"
             style="fill:none;stroke:#000000;stroke-width:1;stroke-linecap:butt;stroke-linejoin:miter;stroke-miterlimit:10;stroke-dasharray:none;stroke-opacity:1"
             id="path126" /><path
             d="m 86,112.12 3.5,7 -3.5,-1.75 -3.5,1.75 z"
             style="fill:#000000;fill-opacity:1;fill-rule:nonzero;stroke:none"
             id="path128" /><path
             d="m 86,112.12 3.5,7 -3.5,-1.75 -3.5,1.75 z"
             style="fill:none;stroke:#000000;stroke-width:1;stroke-linecap:butt;stroke-linejoin:miter;stroke-miterlimit:10;stroke-dasharray:none;stroke-opacity:1"
             id="path130" /><path
             d="m 26,161 h 120 v 40 H 26 Z"
             style="fill:#7ab51d;fill-opacity:1;fill-rule:nonzero;stroke:none"
             id="path132" /><path
             d="m 26,161 h 120 v 40 H 26 Z"
             style="fill:none;stroke:#000000;stroke-width:1;stroke-linecap:butt;stroke-linejoin:miter;stroke-miterlimit:10;stroke-dasharray:none;stroke-opacity:1"
             id="path134" /></g><g
           id="g136"
           transform="scale(2.9937663)"><text
             transform="translate(56.03125,177)"
             style="font-variant:normal;font-weight:normal;font-size:16px;font-family:'Open Sans';-inkscape-font-specification:OpenSans;writing-mode:lr-tb;fill:#000000;fill-opacity:1;fill-rule:nonzero;stroke:none"
             id="text140"><tspan
               x="0 8.3046875 12.351562 19.984375 25.632812 34.609375 44.429688 53.40625"
               y="0"
               id="tspan138">Listener</tspan></text><text
             transform="translate(48.875,197)"
             style="font-variant:normal;font-weight:normal;font-size:16px;font-family:'Open Sans';-inkscape-font-specification:OpenSans;writing-mode:lr-tb;fill:#000000;fill-opacity:1;fill-rule:nonzero;stroke:none"
             id="text144"><tspan
               x="0 10.09375 19.757812 29.578125 37.59375 46.570312 53.101562 58.75 67.726562"
               y="0"
               id="tspan142">Converter</tspan></text></g></g></g></g></svg>
