<?xml version="1.0" encoding="UTF-8" standalone="no"?>
<svg
   xmlns:dc="http://purl.org/dc/elements/1.1/"
   xmlns:cc="http://creativecommons.org/ns#"
   xmlns:rdf="http://www.w3.org/1999/02/22-rdf-syntax-ns#"
   xmlns:svg="http://www.w3.org/2000/svg"
   xmlns="http://www.w3.org/2000/svg"
   version="1.1"
   id="svg2"
   xml:space="preserve"
   width="725.44"
   height="149.43999"
   viewBox="0 0 725.44 149.43999"><metadata
     id="metadata8"><rdf:RDF><cc:Work
         rdf:about=""><dc:format>image/svg+xml</dc:format><dc:type
           rdf:resource="http://purl.org/dc/dcmitype/StillImage" /></cc:Work></rdf:RDF></metadata><defs
     id="defs6"><clipPath
       clipPathUnits="userSpaceOnUse"
       id="clipPath18"><path
         d="M 0,0 H 2266.6665 V 464.72659 H 0 Z"
         clip-rule="evenodd"
         id="path16" /></clipPath><clipPath
       clipPathUnits="userSpaceOnUse"
       id="clipPath30"><path
         d="M 0,0 H 2266.6665 V 464.72659 H 0 Z"
         clip-rule="evenodd"
         id="path28" /></clipPath></defs><g
     id="g10"
     transform="matrix(0.31999998,0,0,0.31999998,0,1.7359998e-6)"><g
       id="g12"><g
         id="g14"
         clip-path="url(#clipPath18)"><g
           id="g20"
           transform="scale(2.9982362)"><path
             d="M 0,0 H 756 V 155 H 0 Z"
             style="fill:#ffffff;fill-opacity:1;fill-rule:nonzero;stroke:none"
             id="path22" /></g></g></g><g
       id="g24"><g
         id="g26"
         clip-path="url(#clipPath30)"><g
           id="g32"
           transform="matrix(2.9982362,0,0,2.9982362,1.4991181,1.4991181)"><path
             d="m 641,42 h 90 v 40 h -90 z"
             style="fill:#052d4b;fill-opacity:1;fill-rule:nonzero;stroke:none"
             id="path34" /><path
             d="m 641,42 h 90 v 40 h -90 z"
             style="fill:none;stroke:#666666;stroke-width:1;stroke-linecap:butt;stroke-linejoin:miter;stroke-miterlimit:10;stroke-dasharray:none;stroke-opacity:1"
             id="path36" /></g><g
           id="g38"
           transform="scale(2.9982362)"><text
             transform="translate(647.76563,68)"
             style="font-variant:normal;font-weight:bold;font-size:16px;font-family:Arimo;-inkscape-font-specification:Arimo-Bold;writing-mode:lr-tb;fill:#ffffff;fill-opacity:1;fill-rule:nonzero;stroke:none"
             id="text42"><tspan
               x="0 10.671875 23.117188 34.671875 45.34375 49.789062 61.34375 72.015625"
               y="0"
               id="tspan40">SOAP API</tspan></text></g><g
           id="g44"
           transform="matrix(2.9982362,0,0,2.9982362,1.4991181,1.4991181)"><path
             d="m 121,62 h 73.63"
             style="fill:none;stroke:#000000;stroke-width:1;stroke-linecap:butt;stroke-linejoin:miter;stroke-miterlimit:10;stroke-dasharray:none;stroke-opacity:1"
             id="path46" /><path
             d="m 199.88,62 -7,3.5 1.75,-3.5 -1.75,-3.5 z"
             style="fill:#000000;fill-opacity:1;fill-rule:nonzero;stroke:none"
             id="path48" /><path
             d="m 199.88,62 -7,3.5 1.75,-3.5 -1.75,-3.5 z"
             style="fill:none;stroke:#000000;stroke-width:1;stroke-linecap:butt;stroke-linejoin:miter;stroke-miterlimit:10;stroke-dasharray:none;stroke-opacity:1"
             id="path50" /><path
             d="M 1,42 H 121 V 82 H 1 Z"
             style="fill:#7ab51d;fill-opacity:1;fill-rule:nonzero;stroke:none"
             id="path52" /><path
             d="M 1,42 H 121 V 82 H 1 Z"
             style="fill:none;stroke:#000000;stroke-width:1;stroke-linecap:butt;stroke-linejoin:miter;stroke-miterlimit:10;stroke-dasharray:none;stroke-opacity:1"
             id="path54" /></g><g
           id="g56"
           transform="scale(2.9982362)"><text
             transform="translate(31.03125,68)"
             style="font-variant:normal;font-weight:normal;font-size:16px;font-family:'Open Sans';-inkscape-font-specification:OpenSans;writing-mode:lr-tb;fill:#000000;fill-opacity:1;fill-rule:nonzero;stroke:none"
             id="text60"><tspan
               x="0 8.3046875 12.351562 19.984375 25.632812 34.609375 44.429688 53.40625"
               y="0"
               id="tspan58">Listener</tspan></text></g><g
           id="g62"
           transform="matrix(2.9982362,0,0,2.9982362,1.4991181,1.4991181)"><path
             d="m 551,61.200001 h 45 l 38.63,0.689998"
             style="fill:none;stroke:#000000;stroke-width:1;stroke-linecap:butt;stroke-linejoin:miter;stroke-miterlimit:10;stroke-dasharray:none;stroke-opacity:1"
             id="path64" /><path
             d="m 639.88,61.98 -7.05999,3.380001 1.80999,-3.470002 -1.67999,-3.529998 z"
             style="fill:#000000;fill-opacity:1;fill-rule:nonzero;stroke:none"
             id="path66" /><path
             d="m 639.88,61.98 -7.05999,3.380001 1.80999,-3.470002 -1.67999,-3.529998 z"
             style="fill:none;stroke:#000000;stroke-width:1;stroke-linecap:butt;stroke-linejoin:miter;stroke-miterlimit:10;stroke-dasharray:none;stroke-opacity:1"
             id="path68" /><path
             d="M 401,42 H 551 V 80.25 H 401 Z"
             style="fill:#d8d8d6;fill-opacity:1;fill-rule:nonzero;stroke:none"
             id="path70" /><path
             d="M 401,42 H 551 V 80.25 H 401 Z"
             style="fill:none;stroke:#000000;stroke-width:1;stroke-linecap:butt;stroke-linejoin:miter;stroke-miterlimit:10;stroke-dasharray:none;stroke-opacity:1"
             id="path72" /></g><g
           id="g74"
           transform="scale(2.9982362)"><text
             transform="translate(454.78125,67)"
             style="font-variant:normal;font-weight:normal;font-size:16px;font-family:'Open Sans';-inkscape-font-specification:OpenSans;writing-mode:lr-tb;fill:#000000;fill-opacity:1;fill-rule:nonzero;stroke:none"
             id="text78"><tspan
               x="0 8.78125 16.398438 22.929688 26.976562 36.78125"
               y="0"
               id="tspan76">Script</tspan></text></g><g
           id="g80"
           transform="matrix(2.9982362,0,0,2.9982362,1.4991181,1.4991181)"><path
             d="m 321,62 h 40 l 33.63,-0.740002"
             style="fill:none;stroke:#000000;stroke-width:1;stroke-linecap:butt;stroke-linejoin:miter;stroke-miterlimit:10;stroke-dasharray:none;stroke-opacity:1"
             id="path82" /><path
             d="m 399.88,61.150002 -6.92001,3.650001 1.67001,-3.540005 -1.82,-3.459999 z"
             style="fill:#000000;fill-opacity:1;fill-rule:nonzero;stroke:none"
             id="path84" /><path
             d="m 399.88,61.150002 -6.92001,3.650001 1.67001,-3.540005 -1.82,-3.459999 z"
             style="fill:none;stroke:#000000;stroke-width:1;stroke-linecap:butt;stroke-linejoin:miter;stroke-miterlimit:10;stroke-dasharray:none;stroke-opacity:1"
             id="path86" /><path
             d="M 201,42 H 321 V 82 H 201 Z"
             style="fill:#7ab51d;fill-opacity:1;fill-rule:nonzero;stroke:none"
             id="path88" /><path
             d="M 201,42 H 321 V 82 H 201 Z"
             style="fill:none;stroke:#000000;stroke-width:1;stroke-linecap:butt;stroke-linejoin:miter;stroke-miterlimit:10;stroke-dasharray:none;stroke-opacity:1"
             id="path90" /></g><g
           id="g92"
           transform="scale(2.9982362)"><text
             transform="translate(231.03125,58)"
             style="font-variant:normal;font-weight:normal;font-size:16px;font-family:'Open Sans';-inkscape-font-specification:OpenSans;writing-mode:lr-tb;fill:#000000;fill-opacity:1;fill-rule:nonzero;stroke:none"
             id="text96"><tspan
               x="0 8.3046875 12.351562 19.984375 25.632812 34.609375 44.429688 53.40625"
               y="0"
               id="tspan94">Listener</tspan></text><text
             transform="translate(223.875,78)"
             style="font-variant:normal;font-weight:normal;font-size:16px;font-family:'Open Sans';-inkscape-font-specification:OpenSans;writing-mode:lr-tb;fill:#000000;fill-opacity:1;fill-rule:nonzero;stroke:none"
             id="text100"><tspan
               x="0 10.09375 19.757812 29.578125 37.59375 46.570312 53.101562 58.75 67.726562"
               y="0"
               id="tspan98">Converter</tspan></text><path
             d="m 360,122 v -2 h 2 v 2 m -2,-8 v -2 h 2 v 2 m -2,-8 v -2 h 2 v 2 m -2,-8 v -2 h 2 v 2 m -2,-8 v -2 h 2 v 2 m -2,-8 v -2 h 2 v 2 m -2,-8 v -2 h 2 v 2 m -2,-8 v -2 h 2 v 2 m -2,-8 v -2 h 2 v 2 m -2,-8 v -2 h 2 v 2 m -2,-8 v -2 h 2 v 2 m -2,-8 v -2 h 2 v 2 m -2,-8 v -2 h 2 v 2 m -2,-8 v -2 h 2 v 2 m -2,-8 V 8 h 2 v 2"
             style="fill:#000000;fill-opacity:1;fill-rule:nonzero;stroke:none"
             id="path102" /><path
             d="m 600,121.13 v -6 h 2 v 6 m -2,-12 v -6 h 2 v 6 m -2,-12.000003 v -6 h 2 v 6 m -2,-12 v -6 h 2 v 6 m -2,-12 v -6 h 2 v 6 m -2,-12 v -6 h 2 v 6 m -2,-12 v -6 h 2 v 6 m -2,-12 v -6 h 2 v 6 m -2,-12 v -6 h 2 v 6 m -2,-12 V 7.1299973 h 2 v 5.9999997"
             style="fill:#000000;fill-opacity:1;fill-rule:nonzero;stroke:none"
             id="path104" /><text
             transform="translate(126.28125,123)"
             style="font-variant:normal;font-weight:normal;font-size:16px;font-family:'Open Sans';-inkscape-font-specification:OpenSans;writing-mode:lr-tb;fill:#000000;fill-opacity:1;fill-rule:nonzero;stroke:none"
             id="text108"><tspan
               x="0 11.648438 21.742188 30.523438 34.679688 46.484375 56.148438 63.78125"
               y="0"
               id="tspan106">UCS Host</tspan></text><text
             transform="translate(424.8125,118)"
             style="font-variant:normal;font-weight:normal;font-size:16px;font-family:'Open Sans';-inkscape-font-specification:OpenSans;writing-mode:lr-tb;fill:#000000;fill-opacity:1;fill-rule:nonzero;stroke:none"
             id="text112"><tspan
               x="0 12.140625 21.375 25.53125 35.625 45.289062 55.109375 64.929688 73.90625 81.523438 87.171875 96.835938"
               y="0"
               id="tspan110">OX Connector</tspan></text><text
             transform="translate(412.64063,138)"
             style="font-variant:normal;font-weight:normal;font-size:16px;font-family:'Open Sans';-inkscape-font-specification:OpenSans;writing-mode:lr-tb;fill:#000000;fill-opacity:1;fill-rule:nonzero;stroke:none"
             id="text116"><tspan
               x="0 11.664062 21.328125 28.945312 37.023438 46 52.53125 56.6875 64.304688 73.96875 83.789062 89.4375 98.335938 102.38281 112.20312 121.17969"
               y="0"
               id="tspan114">Docker container</tspan></text><text
             transform="translate(638.14063,123)"
             style="font-variant:normal;font-weight:normal;font-size:16px;font-family:'Open Sans';-inkscape-font-specification:OpenSans;writing-mode:lr-tb;fill:#000000;fill-opacity:1;fill-rule:nonzero;stroke:none"
             id="text120"><tspan
               x="0 12.140625 21.375 25.53125 35.65625 45.460938 55.265625 59.421875 68.203125 78.023438 82.070312 87.71875"
               y="0"
               id="tspan118">OX App Suite</tspan></text></g></g></g></g></svg>
